<?xml version="1.0" encoding="UTF-8" standalone="no"?>
<svg
   xmlns:dc="http://purl.org/dc/elements/1.1/"
   xmlns:cc="http://creativecommons.org/ns#"
   xmlns:rdf="http://www.w3.org/1999/02/22-rdf-syntax-ns#"
   xmlns:svg="http://www.w3.org/2000/svg"
   xmlns="http://www.w3.org/2000/svg"
   xmlns:sodipodi="http://sodipodi.sourceforge.net/DTD/sodipodi-0.dtd"
   xmlns:inkscape="http://www.inkscape.org/namespaces/inkscape"
   height="280"
   viewBox="0 0 280 280"
   version="1.1"
   width="280"
   id="svg14"
   sodipodi:docname="mlr-automated-milestones.svg"
   inkscape:version="1.0 (4035a4f, 2020-05-01)">
  <metadata
     id="metadata20">
    <rdf:RDF>
      <cc:Work
         rdf:about="">
        <dc:format>image/svg+xml</dc:format>
        <dc:type
           rdf:resource="http://purl.org/dc/dcmitype/StillImage" />
      </cc:Work>
    </rdf:RDF>
  </metadata>
  <defs
     id="defs18" />
  <sodipodi:namedview
     inkscape:document-rotation="0"
     pagecolor="#ffffff"
     bordercolor="#666666"
     borderopacity="1"
     objecttolerance="10"
     gridtolerance="10"
     guidetolerance="10"
     inkscape:pageopacity="0"
     inkscape:pageshadow="2"
     inkscape:window-width="1273"
     inkscape:window-height="795"
     id="namedview16"
     showgrid="false"
     inkscape:zoom="2.0713332"
     inkscape:cx="101.47357"
     inkscape:cy="140.21189"
     inkscape:window-x="0"
     inkscape:window-y="25"
     inkscape:window-maximized="0"
     inkscape:current-layer="svg14" />
  <path
     fill-rule="evenodd"
     d="m 139.93435,33.001401 a 10.03097,10.03097 0 0 1 10.03097,10.03097 v 30.09291 h 48.60339 c 5.5371,0 10.88695,1.96607 15.11333,5.537095 l 27.68548,23.405594 a 23.405596,23.405596 0 0 1 0,35.737 l -27.68548,23.4056 a 23.405596,23.405596 0 0 1 -15.11333,5.5371 h -48.60339 v 70.21679 a 10.030971,10.030971 0 1 1 -20.06194,0 V 166.74767 H 73.061212 A 23.405596,23.405596 0 0 1 49.655616,143.34207 V 96.530877 c 0,-12.919889 10.485707,-23.405596 23.405596,-23.405596 h 56.842168 v -30.09291 a 10.03097,10.03097 0 0 1 10.03097,-10.03097 z m 0,113.684329 h 58.63436 a 3.3436566,3.3436566 0 0 0 2.15332,-0.80248 l 27.68547,-23.4056 a 3.3436566,3.3436566 0 0 0 0,-5.08236 L 200.72203,93.989698 a 3.3436566,3.3436566 0 0 0 -2.15332,-0.802477 H 73.061212 a 3.3436566,3.3436566 0 0 0 -3.343656,3.343656 v 46.811193 c 0,1.8457 1.497958,3.34366 3.343656,3.34366 z"
     id="path10"
     style="stroke-width:13.3746" />
  <g
     transform="translate(10.021905)"
     id="g848">
    <path
       id="path860"
       d="m 121.36289,206.95845 a 1.3318714,1.3318714 0 0 0 -2.01911,1.14541 v 27.26074 a 1.3318714,1.3318714 0 0 0 2.01911,1.14009 l 22.71639,-13.63304 a 1.3318714,1.3318714 0 0 0 0,-2.28016 z"
       style="fill:#000000;fill-opacity:1;fill-rule:nonzero;stroke:none;stroke-width:5.32748;stroke-opacity:1" />
    <path
       id="path858"
       d="m 129.99874,179.11168 a 42.61989,42.61989 0 1 0 0,85.23977 42.61989,42.61989 0 0 0 0,-85.23977 z"
       style="fill:#ffffff;fill-opacity:1;fill-rule:nonzero;stroke:none;stroke-width:5.32748;stroke-opacity:1" />
    <path
       style="fill:#000000;fill-opacity:1;fill-rule:evenodd;stroke:#000000;stroke-width:5.32748;stroke-opacity:1"
       id="path12"
       d="m 95.370091,221.73156 a 34.628658,34.628657 0 1 1 69.257309,0 34.628658,34.628657 0 0 1 -69.257309,0 z m 34.628649,-42.61988 a 42.61989,42.61989 0 1 0 0,85.23977 42.61989,42.61989 0 0 0 0,-85.23977 z m -8.63585,27.84677 a 1.3318714,1.3318714 0 0 0 -2.01911,1.14541 v 27.26074 a 1.3318714,1.3318714 0 0 0 2.01911,1.14009 l 22.71639,-13.63304 a 1.3318714,1.3318714 0 0 0 0,-2.28016 z"
       fill-rule="evenodd" />
  </g>
</svg>
